<svg width="170" height="28" viewBox="0 0 170 28" fill="none" xmlns="http://www.w3.org/2000/svg">
<g clip-path="url(#clip0_7:2)">
<path d="M19.8099 0.622563C14.3381 0.61973 8.62891 1.85223 2.86662 3.45094C2.13491 3.59827 1.42091 4.07711 1.04337 4.66927C0.696285 5.22744 0.570201 5.78773 0.461826 6.37494C-0.097757 9.51144 -0.029757 12.5913 0.0864097 16.004C0.11191 16.7853 0.228076 17.7111 0.592868 18.2742C0.973951 18.843 1.62703 19.2043 2.40691 19.3226C3.40325 19.4687 4.40272 19.5927 5.40458 19.6944L5.18358 25.8555C5.14958 26.3457 5.38899 26.753 5.68649 26.9874C5.95283 27.19 6.24962 27.28 6.5542 27.3026C7.16337 27.3487 7.87808 27.088 8.23295 26.4123C9.78774 23.4203 10.7631 22.0992 12.7075 20.1116C17.7777 20.2363 22.2041 19.9544 27.2156 19.5839C28.9871 19.5379 30.2033 18.0894 30.5249 16.9326C31.4861 13.935 31.6356 10.2346 31.7376 6.49394C31.7808 5.0114 31.2665 3.55577 30.3563 2.78652C29.4907 2.08456 28.4424 1.83027 27.4819 1.56961C24.8136 0.965397 22.1446 0.64098 19.8099 0.622563ZM27.0987 2.96715C28.0606 3.22852 28.9085 3.47998 29.4433 3.91419C30.3358 4.86265 30.306 5.49377 30.2933 6.51731C30.1927 10.1454 30.0184 13.6665 29.1996 16.3348C28.8469 17.33 28.232 18.0384 27.0704 18.1453C21.9647 18.5229 17.5348 18.8147 12.4029 18.6688C12.303 18.6656 12.2035 18.6829 12.1105 18.7197C12.0175 18.7565 11.9331 18.812 11.8625 18.8827C9.70628 21.0601 8.60341 22.5731 6.96008 25.7365C6.92183 25.8088 6.83895 25.8527 6.73695 25.8605C6.66824 25.8569 6.64062 25.8038 6.63637 25.7556L6.85878 19.0746C6.87224 18.7141 6.57474 18.3699 6.21633 18.3309C5.01791 18.2164 3.82276 18.07 2.63216 17.8917C2.11791 17.8131 1.92808 17.6721 1.78712 17.4625C1.54203 16.8781 1.5477 16.5169 1.52858 15.9551C1.41383 12.5729 1.35716 9.61698 1.87637 6.67598C1.92453 6.24106 2.08745 5.79623 2.26028 5.42436C2.54645 4.97669 2.98491 4.91081 3.42478 4.78898C9.06028 3.23277 14.5739 2.06898 19.7646 2.06544C22.3089 2.15752 24.9808 2.41252 27.0987 2.96715ZM7.63441 8.69756C6.85808 9.62761 6.93528 10.8906 7.53524 11.7363C7.84833 12.179 8.33708 12.5353 8.93208 12.6161C9.70487 12.6798 10.195 12.3667 10.7242 12.0069C11.6825 11.1739 11.7796 9.7204 11.0507 8.67065C10.6795 8.13586 10.086 7.81498 9.47962 7.79231C8.64945 7.80081 8.08562 8.17127 7.63441 8.69686V8.69756ZM16.0324 7.93823C15.2589 7.96302 14.6335 8.49852 14.2517 9.07652C13.8146 9.7374 13.5596 10.5647 13.9131 11.3758C14.5931 12.9362 16.9426 12.9171 17.8797 11.3311C18.3118 10.6001 18.2013 9.76927 17.8797 9.16648C17.5596 8.5644 17.0751 8.07352 16.3703 7.9609C16.2586 7.94254 16.1455 7.93495 16.0324 7.93823ZM22.8501 8.08486C22.6093 8.07919 22.3614 8.10186 22.129 8.16348C21.1997 8.4114 20.4085 9.37048 20.5282 10.598C20.5891 11.2157 20.8732 11.8178 21.3853 12.2329C21.8974 12.6472 22.6412 12.8328 23.4253 12.672C24.3263 12.4879 24.8844 11.7618 25.0707 11.0606C25.257 10.3593 25.2103 9.64461 24.7775 9.06519C24.5523 8.76575 24.2616 8.52175 23.9277 8.35184C23.5938 8.18193 23.2254 8.09061 22.8508 8.08486H22.8501ZM9.41658 9.23448C9.59012 9.2359 9.72683 9.29115 9.86778 9.49373C10.183 9.94848 10.0952 10.6377 9.77712 10.9139C9.46049 11.1902 9.26287 11.2143 9.12403 11.1959C8.9852 11.1767 8.84424 11.0811 8.71816 10.9026C8.47733 10.5626 8.40649 10.0129 8.72312 9.62052C8.8917 9.39669 9.20124 9.25715 9.41728 9.23448H9.41658ZM16.1337 9.39244C16.1606 9.39669 16.4624 9.57165 16.6069 9.84294C16.7514 10.1142 16.7783 10.3664 16.6409 10.598C16.2322 11.2894 15.363 11.1024 15.2313 10.8013C15.1817 10.6866 15.2192 10.2254 15.4579 9.86631C15.6952 9.50577 15.9942 9.37048 16.1337 9.39173V9.39244ZM23.6165 9.92227C23.6604 9.98106 23.7674 10.3756 23.6845 10.6887C23.6009 11.0018 23.465 11.1951 23.132 11.2631C22.7056 11.351 22.4662 11.2631 22.287 11.1165C22.1071 10.9713 21.986 10.7255 21.9597 10.4627C21.896 9.81106 22.1297 9.66019 22.5009 9.56102C22.933 9.45477 23.4217 9.64036 23.6165 9.92227Z" fill="white"/>
<path d="M40.8071 3.53873C40.8184 3.35456 40.8857 3.18881 41.0104 3.04219C41.071 2.97031 41.1473 2.91318 41.2333 2.87513C41.3193 2.83709 41.4129 2.81913 41.5069 2.82261H46.342C46.5049 2.82261 46.6728 2.89061 46.8463 3.0259C46.9276 3.08428 46.9938 3.16133 47.0391 3.25057C47.0845 3.33981 47.1077 3.43863 47.107 3.53873V11.2546H55.1969V3.53873C55.1969 3.34323 55.2649 3.17536 55.4001 3.0344C55.5361 2.89273 55.7118 2.8219 55.9293 2.8219H60.6992C60.9159 2.8219 61.1058 2.87644 61.2687 2.98481C61.4316 3.0939 61.5131 3.26744 61.5131 3.50615V26.2791C61.5131 26.5178 61.4422 26.697 61.3006 26.816C61.1603 26.9357 60.9754 26.9952 60.7481 26.9952H55.9293C55.7125 26.9952 55.5361 26.9357 55.4001 26.816C55.2649 26.697 55.1969 26.5185 55.1969 26.2791V17.0332H47.107V26.2791C47.107 26.5071 47.0333 26.6828 46.8874 26.8082C46.7408 26.9329 46.5424 26.9952 46.2924 26.9952H41.5069C41.0514 26.9952 40.8184 26.7834 40.8071 26.3605V3.53873ZM85.3435 26.7189C85.2026 26.8379 85.0531 26.9137 84.8959 26.9463C84.7489 26.978 84.5992 26.9946 84.4489 26.9959H81.991C81.7955 26.9959 81.6269 26.9605 81.4859 26.8897C81.3443 26.8188 81.2253 26.7239 81.1275 26.6049C81.0275 26.4813 80.9455 26.3442 80.8839 26.1976C80.8183 26.0445 80.7638 25.8868 80.7209 25.7259L80.2166 23.6419C80.0537 23.9784 79.8178 24.3609 79.5083 24.7894C79.1734 25.2442 78.7761 25.6496 78.3282 25.9936C77.8508 26.369 77.2806 26.6835 76.619 26.9385C75.9567 27.1935 75.1974 27.321 74.3396 27.321C73.1028 27.321 71.9794 27.0823 70.97 26.6049C69.9818 26.1432 69.1026 25.4774 68.3903 24.6513C67.6798 23.8268 67.1287 22.8635 66.7384 21.7613C66.3474 20.6606 66.1519 19.4854 66.1519 18.2381V7.57552C66.1519 7.16327 66.2419 6.85161 66.4211 6.63981C66.5996 6.42802 66.8844 6.32248 67.2754 6.32248H71.0352C71.5027 6.32248 71.8221 6.4004 71.9957 6.55836C72.1692 6.71561 72.2564 7.02231 72.2564 7.47777V18.0744C72.2564 18.5419 72.3626 18.9839 72.5737 19.4019C72.7855 19.8198 73.0646 20.1881 73.4124 20.5083C73.7594 20.8284 74.1526 21.0813 74.5924 21.2655C75.0316 21.4496 75.4793 21.5417 75.9354 21.5417C76.3257 21.5417 76.7302 21.4496 77.1481 21.2655C77.5688 21.079 77.9584 20.8291 78.3034 20.5246C78.6561 20.2157 78.9466 19.8516 79.1747 19.4337C79.4027 19.0158 79.5161 18.5738 79.5161 18.1077V7.52665C79.5161 7.34248 79.5515 7.15831 79.6223 6.97344C79.6931 6.78927 79.7987 6.64761 79.9397 6.54986C80.0806 6.46344 80.2138 6.40394 80.3384 6.37136C80.4631 6.33877 80.6076 6.32177 80.7698 6.32177H84.4489C84.915 6.32177 85.2514 6.43652 85.4576 6.6639C85.6637 6.89198 85.7671 7.19586 85.7671 7.57552V25.791C85.7671 25.9964 85.7211 26.187 85.629 26.3605C85.5369 26.5341 85.4094 26.6701 85.2465 26.7671L85.3435 26.7189ZM104.243 24.4721C103.949 24.7654 103.626 25.0799 103.274 25.4163C102.922 25.7528 102.533 26.068 102.11 26.3605C101.685 26.6549 101.226 26.8981 100.743 27.0851C100.239 27.2779 99.7035 27.3745 99.1638 27.3699C97.6884 27.3699 96.3291 27.0936 95.0859 26.5397C93.8741 26.008 92.7832 25.2354 91.8793 24.2688C90.984 23.3083 90.2841 22.1771 89.7798 20.8745C89.2748 19.5726 89.0226 18.1729 89.0226 16.6748C89.0226 15.166 89.2748 13.7635 89.7798 12.4673C90.2841 11.171 90.984 10.0419 91.8793 9.08144C92.7821 8.1158 93.8735 7.34577 95.0859 6.81902C96.3291 6.27077 97.6884 5.99665 99.1638 5.99665C99.7609 5.99665 100.306 6.08377 100.8 6.25731C101.276 6.42237 101.73 6.64653 102.151 6.92456C102.558 7.19586 102.932 7.50256 103.274 7.84398C103.616 8.18611 103.939 8.51973 104.243 8.84556V1.40594C104.243 1.05886 104.349 0.766315 104.56 0.527606C104.772 0.288189 105.089 0.169189 105.513 0.169189H109.175C109.316 0.169189 109.465 0.198939 109.622 0.258439C109.78 0.318648 109.923 0.402231 110.054 0.511314C110.184 0.619689 110.29 0.750023 110.371 0.901606C110.453 1.0539 110.494 1.22177 110.494 1.40594V25.7421C110.494 26.578 110.054 26.9959 109.175 26.9959H105.984C105.768 26.9959 105.599 26.9676 105.48 26.9137C105.362 26.8607 105.258 26.7797 105.178 26.6779C105.088 26.5584 105.014 26.4271 104.959 26.2876C104.882 26.1038 104.801 25.9219 104.715 25.7421L104.243 24.4721ZM94.8826 16.6748C94.8772 17.3593 94.9901 18.0396 95.2163 18.6857C95.4387 19.3091 95.756 19.8495 96.169 20.305C96.5858 20.764 97.0926 21.1324 97.6579 21.3873C98.2387 21.6536 98.8819 21.7861 99.5874 21.7861C100.282 21.7861 100.935 21.6614 101.549 21.4121C102.145 21.1735 102.689 20.8224 103.152 20.3779C103.612 19.9329 103.985 19.4058 104.251 18.8239C104.527 18.2267 104.682 17.5864 104.715 16.9029V16.6748C104.717 15.9936 104.585 15.3187 104.324 14.6893C104.072 14.0723 103.704 13.5089 103.242 13.029C102.778 12.5497 102.225 12.1654 101.614 11.8978C100.975 11.618 100.285 11.4765 99.5874 11.4827C98.8819 11.4827 98.2387 11.6208 97.6579 11.8978C97.0771 12.174 96.5812 12.5516 96.169 13.029C95.75 13.5177 95.4268 14.081 95.2163 14.6893C94.9927 15.3272 94.8801 15.9988 94.8834 16.6748H94.8826ZM129.393 24.4721C129.099 24.7654 128.776 25.0799 128.424 25.4163C128.071 25.7528 127.683 26.068 127.26 26.3605C126.834 26.6549 126.375 26.8981 125.893 27.0851C125.389 27.2779 124.853 27.3745 124.313 27.3699C122.838 27.3699 121.478 27.0936 120.236 26.5397C119.024 26.0081 117.933 25.2355 117.029 24.2688C116.134 23.3083 115.434 22.1771 114.929 20.8745C114.425 19.5726 114.172 18.1729 114.172 16.6748C114.172 15.166 114.425 13.7635 114.929 12.4673C115.434 11.171 116.133 10.0419 117.029 9.08144C117.932 8.11572 119.023 7.34568 120.236 6.81902C121.478 6.27077 122.838 5.99665 124.313 5.99665C124.91 5.99665 125.456 6.08377 125.949 6.25731C126.426 6.42237 126.88 6.64653 127.3 6.92456C127.708 7.19586 128.082 7.50256 128.424 7.84398C128.766 8.18611 129.088 8.51973 129.392 8.84556V1.40594C129.392 1.05886 129.498 0.766315 129.709 0.527606C129.922 0.288189 130.238 0.169189 130.662 0.169189H134.324C134.466 0.169189 134.614 0.198939 134.772 0.258439C134.93 0.318648 135.073 0.402231 135.204 0.511314C135.333 0.619689 135.44 0.750023 135.521 0.901606C135.602 1.0539 135.643 1.22177 135.643 1.40594V25.7421C135.643 26.578 135.204 26.9959 134.324 26.9959H131.134C130.917 26.9959 130.748 26.9676 130.629 26.9137C130.511 26.8606 130.408 26.7797 130.328 26.6779C130.238 26.5584 130.164 26.4271 130.109 26.2876C130.032 26.1038 129.95 25.9219 129.864 25.7421L129.392 24.4721H129.393ZM120.032 16.6748C120.027 17.3593 120.139 18.0396 120.366 18.6857C120.589 19.3091 120.906 19.8495 121.318 20.305C121.735 20.7641 122.242 21.1325 122.808 21.3873C123.389 21.6536 124.031 21.7861 124.737 21.7861C125.431 21.7861 126.085 21.6614 126.698 21.4121C127.294 21.1735 127.839 20.8224 128.302 20.3779C128.761 19.9328 129.134 19.4057 129.4 18.8239C129.677 18.2267 129.832 17.5864 129.864 16.9029V16.6748C129.867 15.9936 129.734 15.3187 129.473 14.6893C129.221 14.0723 128.854 13.5089 128.391 13.029C127.927 12.5497 127.374 12.1654 126.763 11.8978C126.125 11.618 125.434 11.4765 124.737 11.4827C124.031 11.4827 123.388 11.6208 122.808 11.8978C122.227 12.174 121.731 12.5516 121.318 13.029C120.899 13.5177 120.576 14.081 120.366 14.6893C120.142 15.3272 120.029 15.9988 120.033 16.6748H120.032ZM139.974 1.42223C139.974 1.07515 140.06 0.782606 140.234 0.543898C140.408 0.304481 140.706 0.185481 141.129 0.185481H145.117C145.226 0.185481 145.34 0.215231 145.459 0.274731C145.584 0.338897 145.697 0.424482 145.793 0.527606C145.896 0.635981 145.983 0.766315 146.053 0.917898C146.124 1.07019 146.16 1.23806 146.16 1.42223V25.7421C146.16 26.1544 146.043 26.4661 145.809 26.6779C145.576 26.8896 145.275 26.9952 144.906 26.9952H141.129C140.706 26.9952 140.408 26.8889 140.234 26.6779C140.06 26.4661 139.974 26.1537 139.974 25.7421V1.42223ZM167.386 24.521C166.442 25.3929 165.351 26.0901 164.163 26.5801C162.96 27.0758 161.671 27.3276 160.37 27.321C158.883 27.321 157.478 27.0497 156.154 26.5064C154.86 25.9835 153.678 25.2185 152.671 24.2525C151.667 23.2848 150.86 22.1322 150.294 20.8582C149.708 19.5563 149.415 18.1403 149.415 16.6096C149.415 15.6548 149.531 14.7297 149.765 13.8344C149.991 12.9583 150.324 12.1137 150.758 11.3198C151.187 10.5383 151.712 9.81373 152.321 9.1629C152.928 8.51097 153.621 7.94413 154.38 7.47777C155.152 7.00542 155.984 6.63856 156.854 6.38694C157.769 6.12311 158.717 5.99168 159.67 5.99665C160.571 5.99665 161.444 6.11636 162.29 6.35506C163.137 6.59377 163.932 6.93023 164.675 7.36373C165.419 7.79794 166.099 8.31927 166.718 8.92702C167.329 9.52465 167.864 10.1942 168.313 10.921C168.758 11.6425 169.106 12.4196 169.348 13.2323C169.591 14.0518 169.714 14.8954 169.714 15.7631C169.714 16.3277 169.705 16.7888 169.689 17.1472C169.673 17.5049 169.588 17.7904 169.437 18.0015C169.285 18.214 169.033 18.3599 168.68 18.4406C168.327 18.5228 167.808 18.5632 167.126 18.5632H155.405C155.514 19.2574 155.733 19.8382 156.064 20.3057C156.371 20.7482 156.76 21.1267 157.212 21.4199C157.646 21.6969 158.107 21.8945 158.596 22.0149C159.048 22.1295 159.513 22.1894 159.979 22.1934C160.37 22.1934 160.771 22.1523 161.183 22.0716C161.59 21.9918 161.99 21.8829 162.38 21.7457C162.746 21.6187 163.1 21.4607 163.438 21.2733C163.758 21.0948 164.016 20.9071 164.211 20.7123C164.385 20.5706 164.534 20.4651 164.659 20.3942C164.784 20.3234 164.917 20.2887 165.058 20.2887C165.2 20.2887 165.343 20.3383 165.49 20.4353C165.668 20.5601 165.834 20.7017 165.986 20.8582L167.711 22.8118C167.83 22.9534 167.907 23.0809 167.939 23.1943C167.972 23.3083 167.988 23.4252 167.988 23.5442C167.988 23.7616 167.928 23.9487 167.809 24.1059C167.689 24.2641 167.546 24.4039 167.386 24.521H167.386ZM159.556 10.9614C159.133 10.9614 158.723 11.0456 158.327 11.2135C157.925 11.3851 157.55 11.6126 157.212 11.8893C156.865 12.1712 156.553 12.4914 156.276 12.8498C156.012 13.1877 155.785 13.5535 155.6 13.9406H163.918C163.7 13.5325 163.453 13.1407 163.178 12.7683C162.917 12.415 162.61 12.0976 162.266 11.8241C161.915 11.5475 161.518 11.3328 161.094 11.1894C160.655 11.0371 160.142 10.9614 159.556 10.9614Z" fill="white"/>
</g>
<defs>
<clipPath id="clip0_7:2">
<rect width="170" height="27.625" fill="white"/>
</clipPath>
</defs>
</svg>
